<?xml version="1.0" encoding="utf-8"?>
<!-- Generator: Adobe Illustrator 18.1.0, SVG Export Plug-In . SVG Version: 6.00 Build 0)  -->
<svg version="1.1" id="Layer_1" xmlns="http://www.w3.org/2000/svg" xmlns:xlink="http://www.w3.org/1999/xlink" x="0px" y="0px"
	 viewBox="0 0 97.9 97.9" style="enable-background:new 0 0 97.9 97.9;" xml:space="preserve">
<g>
	<defs>
		<circle id="SVGID_1_" cx="48.9" cy="48.9" r="48.9"/>
	</defs>
	<clipPath id="SVGID_2_">
		<use xlink:href="#SVGID_1_"  style="overflow:visible;"/>
	</clipPath>
	<circle style="clip-path:url(#SVGID_2_);fill:#FFFFFF;" cx="48.9" cy="48.9" r="48.9"/>
	<path style="clip-path:url(#SVGID_2_);" d="M81.3,41.1l7.2-5.7h-5.7l4.5-8.7l-9.4,3.7c0,0-26-16.3-29.1,14.8
		c0,0-17.4,3.2-33.7-15.6c0,0-9.4,6.4,4,20c0,0-3.9,2.7-7.2,0c0,0,0.2,10.1,11.9,14.8c0,0,4.7,1.7-5.4,1.2c0,0,1,9.9,14.3,11.9
		c0,0-4.5,7.4-23.2,7.2c0,0,47.7,27.4,70.2-27.4C79.6,57.4,82.1,49.5,81.3,41.1z"/>
</g>
<g>
</g>
<g>
</g>
<g>
</g>
<g>
</g>
<g>
</g>
<g>
</g>
</svg>
